<svg width="298" height="307" viewBox="0 0 298 307" fill="none" xmlns="http://www.w3.org/2000/svg">
<g clip-path="url(#clip0_1498_1067)">
<path d="M77.5013 168.005C78.4603 171.097 77.7732 174.143 75.9668 174.807C74.1604 175.472 71.9191 173.504 70.9601 170.41C70.5615 169.18 70.439 167.864 70.603 166.572L66.6914 153.414L72.398 151.546L75.6483 164.716C76.4982 165.635 77.1336 166.763 77.5013 168.005Z" fill="#FFB6B6"/>
<path d="M79.8972 93.4805C79.8972 93.4805 71.2805 93.8886 70.9058 98.7866C70.5312 103.685 59.8281 134.234 59.8281 134.234L68.2446 162.252L74.7907 157.668L71.05 135.763L83.6747 114.876L79.8972 93.4805Z" fill="#A350E8"/>
<path d="M269.518 67.1604C269.518 47.9933 254.649 37.4492 237.663 32.4552C215.887 26.0525 199.938 39.0088 205.809 67.1604C207.139 73.5407 210.322 80.9926 214.261 87.3669H245.52C255.962 79.9606 269.518 82.0377 269.518 67.1604Z" fill="#A350E8"/>
<path d="M58.3984 292.551L62.958 293.295L68.0911 271.26L61.3623 270.161L58.3984 292.551Z" fill="#FFB6B6"/>
<path d="M72.8887 305.095C72.7915 305.937 72.1645 306.544 71.4882 306.452L62.4108 305.208C62.4108 305.208 61.9691 301.173 58.5214 298.991L57.6241 304.552L52.9414 303.91L54.5474 294.99C54.5474 294.99 53.8504 290.005 56.7359 287.901C59.6215 285.797 57.4748 285.85 57.4748 285.85L59.1411 280.422L66.1125 282.298L65.1554 291.047L67.5877 300.194L72.3116 303.595C72.732 303.898 72.9588 304.488 72.8887 305.095Z" fill="#2F2E41"/>
<path d="M113.764 293.897L118.373 294.015L120.942 271.455L114.14 271.279L113.764 293.897Z" fill="#FFB6B6"/>
<path d="M129.577 304.373C129.577 305.222 129.025 305.909 128.343 305.909H119.194C119.194 305.909 118.294 301.967 114.623 300.27L114.37 305.909H109.65L110.222 296.841C110.222 296.841 108.96 291.989 111.582 289.509C114.204 287.029 112.08 287.374 112.08 287.374L113.111 281.762L120.243 282.675L120.296 291.486L123.757 300.231L128.833 302.964C129.285 303.207 129.577 303.761 129.577 304.373Z" fill="#2F2E41"/>
<path d="M79.3094 145.189L70.4273 177.165L72.0235 225.514L59.2148 274.835H69.3847L90.5745 226.177L96.3011 183.055L112.134 276.591H121.974L119.679 178.554L112.521 144.348L79.3094 145.189Z" fill="#2F2E41"/>
<path d="M102.092 81.6579L89.3483 80.8164L85.8727 88.3896L73.1289 95.9628L82.3971 122.89L74.7899 160.214C74.7899 160.214 82.6163 152.289 91.6227 162.252C104.961 177.007 118.742 169.893 118.742 169.893L110.794 130.668L113.599 98.0649C113.959 95.4928 117.26 92.2882 115.002 91.4424L105.568 87.1274L102.092 81.6579Z" fill="#A350E8"/>
<path d="M99.2805 86.4446H84.0384C84.0608 85.316 83.9086 84.1957 83.595 83.1804C83.5862 84.3071 83.429 85.4186 83.1335 86.4446H82.4412C81.3823 86.4429 80.5241 85.0904 80.523 83.4215C76.9412 79.0875 77.411 73.7702 80.523 67.8115C80.5236 60.1686 84.6699 48.7113 89.1754 53.5057C89.3207 53.4937 91.6047 51.8994 91.7501 51.8994C95.7137 51.9045 97.0767 57.5417 98.2738 63.4968C99.6377 62.5063 100.577 66.641 101.257 73.9186C101.456 76.0424 101.632 78.4338 101.79 81.0436C102.227 83.2333 101.455 85.5666 100.066 86.2553C99.8112 86.3813 99.5462 86.4459 99.2795 86.4467L99.2805 86.4446Z" fill="#2F2E41"/>
<path d="M96.1653 79.7367C102.351 79.7367 107.366 74.2733 107.366 67.5339C107.366 60.7944 102.351 55.3311 96.1653 55.3311C89.9795 55.3311 84.9648 60.7944 84.9648 67.5339C84.9648 74.2733 89.9795 79.7367 96.1653 79.7367Z" fill="#FFB6B6"/>
<path d="M97.2339 86.8573C96.1845 88.3812 94.3492 88.9875 92.6996 88.3554L87.7117 86.4438C87.2448 86.4438 86.8477 86.1458 86.8259 85.7598L86.8234 85.7173C86.7733 84.9125 85.4094 84.7771 85.0927 85.5391C84.9653 85.8456 84.8203 86.1476 84.6578 86.4438H83.7539V62.6986C83.7539 58.6258 87.7424 55.3242 92.6625 55.3242C96.8632 55.3242 100.493 57.7533 101.373 61.1533C101.373 61.1533 107.618 67.4936 103.938 71.0582C100.257 74.6228 105.612 77.5242 105.612 77.5242C106.675 81.6317 103.295 88.3077 98.5087 89.6675C97.9457 89.8275 97.8309 86.8573 97.2339 86.8573Z" fill="#2F2E41"/>
<path d="M110.119 65.7223C109.66 66.4329 108.46 68.296 104.716 68.0093C103.762 67.9345 100.376 66.919 97.9107 66.9689C96.2771 67.0001 95.2714 66.9876 93.26 66.9689C90.8823 66.944 90.2312 66.8941 89.7719 66.3456C88.8825 65.2797 89.615 63.3847 89.1906 63.2289C88.836 63.098 87.9175 64.2699 87.4466 65.7223C86.4583 68.7704 90.0045 73.0153 90.3533 76.9423C90.7253 81.1747 87.0629 73.0651 87.4466 76.9423C87.8768 81.3057 89.4173 80.9753 89.3999 82.5523C89.3941 82.7892 89.3301 82.9949 89.1906 83.1757C89.0685 83.3377 88.9464 83.4001 86.8652 83.799C84.3771 84.2789 83.1272 84.5158 82.7958 84.4223C81.9413 84.1855 81.075 82.8702 80.4705 81.929C79.4705 80.3893 80.1798 81.9414 80.4705 80.059C80.7495 78.2388 81.6215 78.002 81.6331 76.319C81.6448 74.1996 80.267 73.5576 79.3078 71.3323C77.5347 67.2182 79.2671 62.456 79.8891 60.7356C80.1879 59.9105 80.7298 58.8663 81.6794 57.1411C82.4418 55.756 83.4537 54.5359 84.6877 53.6218C86.5373 52.2516 88.6855 51.3128 91.0083 50.9408C92.2805 50.737 93.5777 50.844 94.8285 51.1662L98.0685 52.001C99.4303 52.3518 100.714 52.9877 101.846 53.8722C102.901 53.8759 103.816 54.6071 104.178 55.6699C104.216 55.7811 104.25 55.8459 104.279 55.8364C110.119 53.8789 110.115 59.6766 110.051 63.2984C110.044 63.6691 110.057 63.9972 110.101 64.2636V64.2823C110.218 64.9992 110.247 65.5228 110.119 65.7223Z" fill="#2F2E41"/>
<path d="M41.3801 297.337C40.4141 297.403 39.8803 296.095 40.6111 295.333L40.6838 295.018C40.6743 294.993 40.6647 294.968 40.6551 294.943C39.6758 292.4 37.9226 294.8 35.3959 294.971C31.68 295.222 31.7355 298.284 33.175 301.865C33.5657 302.836 30.2485 294.994 30.2485 289.73C30.2485 288.407 30.315 287.085 30.4509 285.765C30.5626 284.686 30.7166 283.613 30.916 282.551C31.9941 276.806 34.3286 271.334 37.6959 266.764C39.3147 265.8 40.6646 264.293 41.48 262.486C41.773 261.835 44.2898 261.285 44.3986 260.571C44.2143 260.597 41.4166 257.39 41.5556 257.202C41.2988 256.778 40.8393 256.567 40.5589 256.153C39.1645 254.093 37.2432 254.452 36.2403 257.252C34.0977 258.43 34.077 260.383 35.3916 262.263C36.228 263.458 36.343 265.076 37.0768 266.356C37.0013 266.461 36.9228 266.563 36.8473 266.668C36.8183 266.709 36.7893 266.749 36.7605 266.79C35.5759 268.46 33.2107 268.032 32.551 266.048C32.5029 265.903 32.0946 273.743 32.4018 265.629C32.7091 257.514 30.0303 261.645 28.6741 259.774C27.0542 257.538 23.759 258.554 23.4735 261.385C23.4708 261.412 23.4682 261.439 23.4655 261.466C23.6661 261.59 23.8626 261.721 24.0545 261.859C25.1483 262.647 24.7699 264.495 23.4738 264.712L23.4444 264.717C23.5169 265.504 23.6407 266.283 23.8219 267.05C22.0914 274.341 25.826 276.998 31.1597 277.118L31.4376 277.549C30.9326 279.132 30.5263 280.754 30.2214 282.396C29.9345 283.919 29.7351 285.459 29.6234 287.006L29.6187 287.072C29.5262 288.387 27.9984 288.947 27.2305 287.927C27.0351 287.667 26.8351 287.439 26.6335 287.259C24.3211 285.189 21.054 284.427 18.5593 282.764C17.3584 281.963 15.8195 282.998 16.0291 284.515L16.0393 284.587C16.4107 284.752 16.7731 284.943 17.1235 285.156C17.3242 285.28 17.5208 285.411 17.7129 285.549C18.8069 286.338 18.4282 288.185 17.1317 288.402L17.1023 288.407C17.0812 288.411 17.063 288.414 17.0419 288.417L17.0611 288.467C17.8952 290.604 19.8887 291.989 22.0176 291.862C24.5235 291.713 27.6361 293.995 30.3814 298.031L30.3844 298.031C30.928 300.611 31.7223 303.131 32.7431 305.533H41.169C41.1992 305.431 41.2264 305.326 41.2536 305.224C40.4744 305.277 39.6892 305.227 38.9221 305.073C39.5472 304.237 40.1724 303.394 40.7975 302.559C40.8126 302.542 40.8247 302.526 40.8368 302.509C41.1539 302.082 41.474 301.657 41.7911 301.23L41.7913 301.229C41.8111 299.916 41.6664 298.607 41.3801 297.337Z" fill="#F2F2F2"/>
<path d="M0 306.393C0 306.73 0.247831 307 0.556448 307H169.488C169.797 307 170.045 306.73 170.045 306.393C170.045 306.057 169.797 305.787 169.488 305.787H0.556448C0.247831 305.787 0 306.057 0 306.393Z" fill="#CCCCCC"/>
<path d="M253.406 16.0479V70.0466C253.406 74.822 249.841 78.7068 245.458 78.7068H195.894C191.511 78.7068 187.945 74.822 187.945 70.0466V16.0479C187.945 11.2725 191.511 7.3877 195.894 7.3877H245.458C249.841 7.3877 253.406 11.2725 253.406 16.0479ZM245.458 77.688C249.331 77.688 252.471 74.2668 252.471 70.0466V42.8226C252.471 23.8151 238.328 8.40654 220.882 8.40654H195.894C192.021 8.40654 188.88 11.8277 188.88 16.0479V70.0466C188.88 74.2668 192.021 77.688 195.894 77.688H245.458Z" fill="#3F3D56"/>
<path d="M214.805 120.475H198.804C198.4 120.475 198.072 120.117 198.072 119.678C198.072 119.238 198.4 118.881 198.804 118.881H214.805C215.208 118.881 215.536 119.238 215.536 119.678C215.536 120.117 215.208 120.475 214.805 120.475Z" fill="#3F3D56"/>
<path d="M288.682 1.59404H272.681C272.277 1.59404 271.949 1.23643 271.949 0.796935C271.949 0.357441 272.277 0 272.681 0H288.682C289.085 0 289.413 0.357441 289.413 0.796935C289.413 1.23643 289.085 1.59404 288.682 1.59404Z" fill="#3F3D56"/>
<path d="M288.682 18.5901H272.681C272.277 18.5901 271.949 18.2325 271.949 17.793C271.949 17.3535 272.277 16.9961 272.681 16.9961H288.682C289.085 16.9961 289.413 17.3535 289.413 17.793C289.413 18.2325 289.085 18.5901 288.682 18.5901Z" fill="#3F3D56"/>
<path d="M297.268 10.0979H264.095C263.692 10.0979 263.363 9.74034 263.363 9.30084C263.363 8.86135 263.692 8.50391 264.095 8.50391H297.268C297.672 8.50391 298 8.86135 298 9.30084C298 9.74034 297.672 10.0979 297.268 10.0979Z" fill="#3F3D56"/>
<path d="M264.152 134.743H194.965C190.836 134.743 187.477 131.083 187.477 126.584V99.0913C187.477 94.5926 190.836 90.9326 194.965 90.9326H264.152C268.282 90.9326 271.641 94.5926 271.641 99.0913V126.584C271.641 131.083 268.282 134.743 264.152 134.743ZM194.965 91.9515C191.352 91.9515 188.412 95.1543 188.412 99.0913V126.584C188.412 130.521 191.352 133.724 194.965 133.724H264.152C267.766 133.724 270.706 130.521 270.706 126.584V99.0913C270.706 95.1542 267.766 91.9515 264.152 91.9515H194.965Z" fill="#3F3D56"/>
<path d="M290.717 87.3667H282.367C268.203 87.3667 256.68 74.8122 256.68 59.3808V50.2833C256.68 47.1357 259.03 44.5752 261.919 44.5752H290.717C293.606 44.5752 295.956 47.1357 295.956 50.2833V81.6585C295.956 84.8061 293.606 87.3667 290.717 87.3667ZM261.919 45.594C259.542 45.594 257.615 47.6934 257.615 50.2831V59.3808C257.615 74.2743 268.697 86.3478 282.367 86.3478H290.717C293.094 86.3478 295.021 84.2485 295.021 81.6588V61.6749C295.021 52.7937 288.413 45.594 280.261 45.594H261.919Z" fill="#3F3D56"/>
<path d="M119.902 171.212C120.119 174.467 121.836 176.984 123.738 176.833C125.639 176.683 127.004 173.922 126.787 170.665C126.717 169.363 126.361 168.098 125.75 166.976L124.671 153.195L118.746 153.885L120.439 167.397C119.983 168.604 119.798 169.912 119.902 171.212Z" fill="#FFB6B6"/>
<path d="M110.832 90.9326C110.832 90.9326 119.449 91.3408 119.823 96.2388C120.198 101.137 124.319 132.565 124.319 132.565L126.192 163.994L119.449 165.218L111.263 128.076L110.832 90.9326Z" fill="#A350E8"/>
<path d="M237.195 103.394C238.973 99.7014 241.228 97.0369 243.712 95.0088H214.434C221.969 106.736 231.962 114.263 237.195 103.394Z" fill="#A350E8"/>
</g>
<defs>
<clipPath id="clip0_1498_1067">
<rect width="298" height="307" fill="white"/>
</clipPath>
</defs>
</svg>
