<svg width="320" height="222" viewBox="0 0 320 222" fill="none" xmlns="http://www.w3.org/2000/svg">
<g clip-path="url(#clip0_1498_980)">
<path opacity="0.1" d="M81.4037 88.9517H47.5112C46.3109 88.9517 45.3379 89.9234 45.3379 91.122V98.3253C45.3379 99.524 46.3109 100.496 47.5112 100.496H81.4037C82.604 100.496 83.577 99.524 83.577 98.3253V91.122C83.577 89.9234 82.604 88.9517 81.4037 88.9517Z" fill="#A350E8"/>
<path opacity="0.1" d="M121.421 100.499H87.5288C86.3285 100.499 85.3555 101.471 85.3555 102.669V109.873C85.3555 111.071 86.3285 112.043 87.5288 112.043H121.421C122.622 112.043 123.595 111.071 123.595 109.873V102.669C123.595 101.471 122.622 100.499 121.421 100.499Z" fill="#A350E8"/>
<path opacity="0.1" d="M161.443 112.043H127.55C126.35 112.043 125.377 113.015 125.377 114.213V121.417C125.377 122.615 126.35 123.587 127.55 123.587H161.443C162.643 123.587 163.616 122.615 163.616 121.417V114.213C163.616 113.015 162.643 112.043 161.443 112.043Z" fill="#A350E8"/>
<path opacity="0.1" d="M81.4037 71.6357H47.5112C46.3109 71.6357 45.3379 72.6074 45.3379 73.8061V81.0094C45.3379 82.208 46.3109 83.1797 47.5112 83.1797H81.4037C82.604 83.1797 83.577 82.208 83.577 81.0094V73.8061C83.577 72.6074 82.604 71.6357 81.4037 71.6357Z" fill="#A350E8"/>
<path opacity="0.1" d="M121.421 83.1797H87.5288C86.3285 83.1797 85.3555 84.1514 85.3555 85.35V92.5533C85.3555 93.752 86.3285 94.7237 87.5288 94.7237H121.421C122.622 94.7237 123.595 93.752 123.595 92.5533V85.35C123.595 84.1514 122.622 83.1797 121.421 83.1797Z" fill="#A350E8"/>
<path opacity="0.1" d="M161.443 94.7271H127.55C126.35 94.7271 125.377 95.6987 125.377 96.8974V104.101C125.377 105.299 126.35 106.271 127.55 106.271H161.443C162.643 106.271 163.616 105.299 163.616 104.101V96.8974C163.616 95.6987 162.643 94.7271 161.443 94.7271Z" fill="#A350E8"/>
<path opacity="0.1" d="M205.906 88.9517H172.013C170.813 88.9517 169.84 89.9234 169.84 91.122V98.3253C169.84 99.524 170.813 100.496 172.013 100.496H205.906C207.106 100.496 208.079 99.524 208.079 98.3253V91.122C208.079 89.9234 207.106 88.9517 205.906 88.9517Z" fill="#A350E8"/>
<path opacity="0.1" d="M245.923 100.499H212.031C210.83 100.499 209.857 101.471 209.857 102.669V109.873C209.857 111.071 210.83 112.043 212.031 112.043H245.923C247.124 112.043 248.097 111.071 248.097 109.873V102.669C248.097 101.471 247.124 100.499 245.923 100.499Z" fill="#A350E8"/>
<path opacity="0.1" d="M285.943 112.043H252.05C250.85 112.043 249.877 113.015 249.877 114.213V121.417C249.877 122.615 250.85 123.587 252.05 123.587H285.943C287.143 123.587 288.116 122.615 288.116 121.417V114.213C288.116 113.015 287.143 112.043 285.943 112.043Z" fill="#A350E8"/>
<path opacity="0.1" d="M205.906 71.6357H172.013C170.813 71.6357 169.84 72.6074 169.84 73.8061V81.0094C169.84 82.208 170.813 83.1797 172.013 83.1797H205.906C207.106 83.1797 208.079 82.208 208.079 81.0094V73.8061C208.079 72.6074 207.106 71.6357 205.906 71.6357Z" fill="#A350E8"/>
<path opacity="0.1" d="M245.923 83.1797H212.031C210.83 83.1797 209.857 84.1514 209.857 85.35V92.5533C209.857 93.752 210.83 94.7237 212.031 94.7237H245.923C247.124 94.7237 248.097 93.752 248.097 92.5533V85.35C248.097 84.1514 247.124 83.1797 245.923 83.1797Z" fill="#A350E8"/>
<path opacity="0.1" d="M285.943 94.7271H252.05C250.85 94.7271 249.877 95.6987 249.877 96.8974V104.101C249.877 105.299 250.85 106.271 252.05 106.271H285.943C287.143 106.271 288.116 105.299 288.116 104.101V96.8974C288.116 95.6987 287.143 94.7271 285.943 94.7271Z" fill="#A350E8"/>
<path opacity="0.1" d="M81.4037 48.5449H47.5112C46.3109 48.5449 45.3379 49.5166 45.3379 50.7153V57.9186C45.3379 59.1172 46.3109 60.0889 47.5112 60.0889H81.4037C82.604 60.0889 83.577 59.1172 83.577 57.9186V50.7153C83.577 49.5166 82.604 48.5449 81.4037 48.5449Z" fill="#A350E8"/>
<path opacity="0.1" d="M121.421 60.0889H87.5288C86.3285 60.0889 85.3555 61.0606 85.3555 62.2592V69.4625C85.3555 70.6612 86.3285 71.6329 87.5288 71.6329H121.421C122.622 71.6329 123.595 70.6612 123.595 69.4625V62.2592C123.595 61.0606 122.622 60.0889 121.421 60.0889Z" fill="#A350E8"/>
<path opacity="0.1" d="M161.443 71.6357H127.55C126.35 71.6357 125.377 72.6074 125.377 73.8061V81.0094C125.377 82.208 126.35 83.1797 127.55 83.1797H161.443C162.643 83.1797 163.616 82.208 163.616 81.0094V73.8061C163.616 72.6074 162.643 71.6357 161.443 71.6357Z" fill="#A350E8"/>
<path opacity="0.1" d="M81.4037 31.2261H47.5112C46.3109 31.2261 45.3379 32.1978 45.3379 33.3964V40.5997C45.3379 41.7984 46.3109 42.7701 47.5112 42.7701H81.4037C82.604 42.7701 83.577 41.7984 83.577 40.5997V33.3964C83.577 32.1978 82.604 31.2261 81.4037 31.2261Z" fill="#A350E8"/>
<path opacity="0.1" d="M121.421 42.7729H87.5288C86.3285 42.7729 85.3555 43.7446 85.3555 44.9433V52.1466C85.3555 53.3453 86.3285 54.3169 87.5288 54.3169H121.421C122.622 54.3169 123.595 53.3453 123.595 52.1466V44.9433C123.595 43.7446 122.622 42.7729 121.421 42.7729Z" fill="#A350E8"/>
<path opacity="0.1" d="M161.443 54.3169H127.55C126.35 54.3169 125.377 55.2886 125.377 56.4872V63.6906C125.377 64.8892 126.35 65.8609 127.55 65.8609H161.443C162.643 65.8609 163.616 64.8892 163.616 63.6906V56.4872C163.616 55.2886 162.643 54.3169 161.443 54.3169Z" fill="#A350E8"/>
<path opacity="0.1" d="M205.906 48.5449H172.013C170.813 48.5449 169.84 49.5166 169.84 50.7153V57.9186C169.84 59.1172 170.813 60.0889 172.013 60.0889H205.906C207.106 60.0889 208.079 59.1172 208.079 57.9186V50.7153C208.079 49.5166 207.106 48.5449 205.906 48.5449Z" fill="#A350E8"/>
<path opacity="0.1" d="M245.923 60.0889H212.031C210.83 60.0889 209.857 61.0606 209.857 62.2592V69.4625C209.857 70.6612 210.83 71.6329 212.031 71.6329H245.923C247.124 71.6329 248.097 70.6612 248.097 69.4625V62.2592C248.097 61.0606 247.124 60.0889 245.923 60.0889Z" fill="#A350E8"/>
<path opacity="0.1" d="M285.943 71.6357H252.05C250.85 71.6357 249.877 72.6074 249.877 73.8061V81.0094C249.877 82.208 250.85 83.1797 252.05 83.1797H285.943C287.143 83.1797 288.116 82.208 288.116 81.0094V73.8061C288.116 72.6074 287.143 71.6357 285.943 71.6357Z" fill="#A350E8"/>
<path opacity="0.1" d="M205.906 31.2261H172.013C170.813 31.2261 169.84 32.1978 169.84 33.3964V40.5997C169.84 41.7984 170.813 42.7701 172.013 42.7701H205.906C207.106 42.7701 208.079 41.7984 208.079 40.5997V33.3964C208.079 32.1978 207.106 31.2261 205.906 31.2261Z" fill="#A350E8"/>
<path opacity="0.1" d="M245.923 42.7729H212.031C210.83 42.7729 209.857 43.7446 209.857 44.9433V52.1466C209.857 53.3453 210.83 54.3169 212.031 54.3169H245.923C247.124 54.3169 248.097 53.3453 248.097 52.1466V44.9433C248.097 43.7446 247.124 42.7729 245.923 42.7729Z" fill="#A350E8"/>
<path opacity="0.1" d="M285.943 54.3169H252.05C250.85 54.3169 249.877 55.2886 249.877 56.4872V63.6906C249.877 64.8892 250.85 65.8609 252.05 65.8609H285.943C287.143 65.8609 288.116 64.8892 288.116 63.6906V56.4872C288.116 55.2886 287.143 54.3169 285.943 54.3169Z" fill="#A350E8"/>
<path opacity="0.1" d="M160 222C248.366 222 320 208.987 320 192.936C320 176.884 248.366 163.871 160 163.871C71.6344 163.871 0 176.884 0 192.936C0 208.987 71.6344 222 160 222Z" fill="#A350E8"/>
<path d="M70.2013 93.7657L56.7461 176.139L117.587 169.713L114.955 162.703L67.4225 166.646L78.5377 93.6196L70.2013 93.7657Z" fill="#3F3D56"/>
<path d="M54.4062 0.292105L136.308 0L160 179.061L77.8066 190.161L54.4062 0.292105Z" fill="#3F3D56"/>
<path d="M63.3281 7.15674H129.434L152.542 173.657L84.3885 183.004L63.3281 7.15674Z" fill="white"/>
<path d="M125.671 166.167C126.086 166.961 126.396 167.82 126.937 168.536C128.517 170.645 131.515 170.975 133.764 172.351C133.877 172.408 133.97 172.497 134.031 172.608C134.133 172.85 133.905 173.104 133.685 173.256C131.98 174.451 129.742 174.477 127.657 174.463C126.956 174.488 126.255 174.421 125.571 174.264C124.469 173.972 123.524 173.204 122.436 172.891C121.871 172.75 121.294 172.669 120.713 172.649L118.428 172.494C117.82 172.485 117.218 172.373 116.647 172.164C116.363 172.055 116.11 171.876 115.914 171.644C115.718 171.411 115.583 171.133 115.524 170.835C115.459 170.35 115.667 169.88 115.79 169.406C116.082 168.285 115.992 166.929 116.866 166.164C117.227 165.888 117.64 165.69 118.08 165.58C119.67 165.045 121.293 164.613 122.939 164.289C124.293 164.023 125.071 165.016 125.671 166.167Z" fill="#3F3D56"/>
<path d="M99.8323 172.485C99.8908 173.107 99.9084 173.82 99.4579 174.255C99.1775 174.488 98.8386 174.639 98.478 174.693C96.3164 175.196 93.9062 175.231 92.0254 174.057C91.8297 173.945 91.657 173.797 91.5164 173.621C91.3596 173.382 91.2707 173.104 91.259 172.818C91.1918 171.991 91.4462 171.177 91.6773 170.379C92.2241 168.487 92.6395 166.559 92.9205 164.61C92.9439 164.449 98.44 165.486 98.8057 166.03C99.2649 166.701 99.2678 168.314 99.3907 169.114C99.5759 170.232 99.7231 171.356 99.8323 172.485Z" fill="#3F3D56"/>
<path d="M120.29 96.4737L121.753 110.054C122.045 112.829 122.352 115.618 122.15 118.402C121.916 121.615 121.015 124.828 121.396 128.012C121.545 129.251 121.884 130.466 121.934 131.713C121.943 132.543 121.901 133.372 121.808 134.196C121.147 142.436 123.238 150.613 124.409 158.794C124.597 159.804 124.638 160.835 124.531 161.856C124.379 162.893 124.075 164.254 124.999 164.745L116.318 167.888C115.209 166.5 115.943 164.341 115.733 162.58C115.54 160.994 114.668 159.58 114.203 158.052C113.782 156.68 113.694 155.234 113.557 153.808C112.799 146.047 110.474 138.487 109.93 130.708C109.912 129.957 109.814 129.21 109.637 128.48C109.345 127.513 108.76 126.669 108.332 125.76C107.677 124.396 107.355 122.9 107.04 121.422L105.182 112.732C103.304 115.525 103.38 119.159 103.009 122.506C102.488 127.18 101.324 131.775 100.376 136.39C100.156 137.383 99.9911 138.387 99.882 139.399C99.6363 142.106 100.125 144.841 99.8645 147.545C99.572 150.68 98.2528 153.738 98.5716 156.872C98.7471 158.607 99.414 160.249 99.8645 161.932C100.315 163.614 100.537 165.46 99.8498 167.064C97.4474 166.183 94.8666 165.898 92.3295 166.234C89.542 163.386 89.0476 159.414 88.8575 155.426C88.6674 151.439 89.1266 147.446 88.6294 143.497C88.4831 142.328 88.2549 141.189 88.2169 140.024C88.0941 136.288 89.893 132.791 90.788 129.16C91.5935 125.892 91.6704 122.486 91.0133 119.185C90.5745 117.003 89.8198 114.885 89.5507 112.674C89.1851 109.575 89.8052 106.452 90.4283 103.391C90.8465 101.326 91.2619 99.2604 91.7358 97.2069C92.2447 95.0015 92.8502 92.7494 94.2103 90.9442C96.3866 88.0553 100.251 86.7729 103.863 87.0533C107.475 87.3338 110.848 88.9754 113.832 91.0201C116.183 92.5895 118.35 94.419 120.29 96.4737Z" fill="#192534"/>
<path d="M110.584 44.4733C110.42 44.7364 110.305 45.0276 110.247 45.3321C110.174 45.9309 110.54 46.48 110.832 47.0029C111.207 47.6747 111.495 48.3912 111.689 49.1353C111.828 49.5958 111.871 50.08 111.815 50.5578C111.744 50.9167 111.615 51.2618 111.435 51.5802C110.87 52.6668 110.034 53.6717 108.896 54.1244C108.015 54.4484 107.054 54.4873 106.149 54.2354C105.251 53.9814 104.401 53.5786 103.637 53.0436C102.992 52.6357 102.412 52.1335 101.917 51.5539C101.443 50.9201 101.045 50.234 100.729 49.5092C100.121 48.2385 99.5035 46.8802 99.6146 45.4869C99.6204 45.3605 99.6441 45.2356 99.6848 45.1159C99.7798 44.8995 99.9125 44.7017 100.077 44.5317C101.325 43.0549 101.965 41.1599 101.867 39.23L106.129 40.1968C107.068 40.4101 108.007 40.6233 108.934 40.8891C109.694 41.1082 110.864 41.412 111.359 42.0897C111.853 42.7674 110.92 43.854 110.584 44.4733Z" fill="#FBBEBE"/>
<path d="M108.302 43.7487C112.58 43.7487 116.048 40.2857 116.048 36.0138C116.048 31.7419 112.58 28.2788 108.302 28.2788C104.024 28.2788 100.557 31.7419 100.557 36.0138C100.557 40.2857 104.024 43.7487 108.302 43.7487Z" fill="#FBBEBE"/>
<path d="M107.057 51.6177C107.385 50.902 108.093 50.4493 108.739 49.9994C109.386 49.5496 110.041 48.9741 110.167 48.1942C110.174 48.0178 110.218 47.8448 110.295 47.6859C110.544 47.3121 111.135 47.499 111.489 47.7736C112.349 48.4425 112.934 49.3918 113.504 50.3178C114.242 51.4439 114.874 52.6359 115.391 53.8786C116.213 56.0431 116.312 58.4062 116.403 60.7168C116.485 62.8199 116.564 64.9552 116.052 66.9941C115.73 68.2852 115.174 69.5383 115.142 70.8674C115.046 75.6959 113.367 80.3112 113.25 85.1397C113.241 86.5359 113.311 87.9315 113.46 89.3197L113.735 92.454C109.482 92.2106 105.241 91.8377 101.011 91.3352C100.888 89.8922 100.476 88.4931 100.099 87.0968C98.5535 81.3884 97.5632 75.5446 97.1414 69.6464C96.9161 66.5151 96.685 63.3954 96.337 60.2757C96.024 57.4393 95.4097 54.5855 95.7783 51.755C95.9712 50.4684 96.3764 49.2227 96.9776 48.0686C97.1676 47.6088 97.4943 47.2183 97.9136 46.9498C98.123 46.8487 98.3455 46.777 98.5746 46.7366C99.2378 46.6025 99.9109 46.5233 100.587 46.5C100.752 46.4861 100.919 46.5019 101.078 46.5467C101.363 46.6886 101.597 46.9152 101.748 47.1952C103.052 49.1519 104.896 50.6883 107.057 51.6177Z" fill="#F2F2F2"/>
<path d="M103.465 50.9989C104.009 51.7759 105.161 51.9599 105.664 52.7515C105.834 53.0824 105.963 53.4325 106.048 53.7943C106.355 54.7729 106.975 55.6229 107.352 56.5781C107.896 57.951 107.911 59.4699 107.917 60.9451C107.97 62.1201 107.88 63.2972 107.648 64.4503C107.472 65.1718 107.186 65.8583 106.975 66.571C106.617 67.7831 106.484 69.0502 106.583 70.31C106.583 70.5821 106.656 70.8493 106.794 71.084C106.992 71.3186 107.251 71.4944 107.542 71.5923C108.399 71.9691 109.297 72.3547 110.233 72.2671C110.425 72.261 110.611 72.1991 110.769 72.0889C110.877 71.9902 110.966 71.8723 111.032 71.7413L111.617 70.754C112.146 69.8513 112.699 68.8407 112.494 67.8095C112.346 67.2773 112.122 66.7689 111.83 66.2993C111.457 65.5374 111.138 64.7496 110.877 63.9421C109.944 61.2635 108.999 58.5469 108.788 55.7193C108.665 54.6432 108.785 53.5531 109.139 52.5295C109.414 51.8996 109.76 51.3028 110.169 50.7506C110.076 50.6265 109.948 50.5335 109.801 50.4839C109.655 50.4343 109.496 50.4306 109.347 50.4731C109.053 50.5639 108.768 50.6822 108.496 50.8265C107.636 51.1887 106.682 51.0573 105.814 50.809C105.474 50.7097 104.936 50.3708 104.585 50.3942C104.465 50.4088 103.485 51.0339 103.465 50.9989Z" fill="#A350E8"/>
<path d="M110.313 50.9667C110.138 50.8265 109.866 50.698 109.711 50.8616C109.659 50.9325 109.621 51.0128 109.599 51.0982C109.447 51.5071 109 51.7087 108.593 51.8664C108.187 52.0241 107.748 52.1118 107.502 51.8109C107.425 51.6938 107.387 51.555 107.393 51.4147C107.4 51.2745 107.452 51.14 107.54 51.031C107.72 50.8145 107.937 50.6316 108.181 50.4906C109.526 49.5422 110.443 48.1021 110.731 46.4829C111.109 46.7824 111.359 47.2134 111.431 47.6893C111.527 48.1537 111.539 48.6328 111.635 49.0973C111.779 49.7633 112.097 50.3854 112.171 51.0602C112.209 51.4195 112.171 51.7817 112.171 52.141C112.184 52.4923 112.225 52.8419 112.293 53.1867C111.609 52.4623 111.126 51.6123 110.313 50.9667Z" fill="#F2F2F2"/>
<path d="M104.392 48.9833C104.1 48.7058 103.807 48.4429 103.515 48.1596C102.231 46.9085 101.262 45.3721 100.686 43.6758C100.312 43.9679 99.8994 44.3535 99.8906 44.8442C99.924 45.1915 100.058 45.5214 100.277 45.7935C101.383 47.5331 102.113 49.4841 102.421 51.5217C102.579 51.2752 102.798 51.0734 103.056 50.9358C103.315 50.7982 103.605 50.7294 103.898 50.736C104.36 50.736 106.434 51.9628 106.583 51.6532C106.803 51.1683 104.743 49.3134 104.392 48.9833Z" fill="#F2F2F2"/>
<path d="M110.924 46.658C113.675 49.3933 117.043 51.4298 120.746 52.5965C121.114 52.6767 121.455 52.8496 121.737 53.0989C121.948 53.3618 122.09 53.6731 122.15 54.0045C122.864 56.7912 123.103 59.6742 123.34 62.5398C123.402 63.0137 123.393 63.4943 123.311 63.9653C123.138 64.7306 122.594 65.3498 122.059 65.9253C120.38 67.7217 118.464 69.6 118.181 72.042C118.159 72.5127 118.103 72.9813 118.014 73.4441C117.868 73.9874 117.543 74.4664 117.344 74.9951C116.367 77.5978 118.575 80.7496 117.23 83.1741C117.958 84.5716 118.458 86.0764 118.71 87.6316C118.755 88.2212 118.89 88.8004 119.111 89.3492C119.511 90.1846 120.336 90.7163 120.986 91.3939C122.966 93.4212 123.209 96.5233 123.326 99.3538C123.399 100.949 123.375 102.78 122.156 103.826C121.451 104.436 120.488 104.635 119.567 104.787C118.341 104.991 117.008 105.137 115.922 104.533C115.144 104.101 114.615 103.344 114.109 102.614C113.149 101.22 112.187 99.8299 111.277 98.4015C109.838 96.1494 108.481 93.576 108.896 90.9353C108.779 93.6373 108.209 96.3597 106.881 98.7141C105.553 101.068 103.415 103.034 100.82 103.811C98.2259 104.588 95.1926 104.039 93.2591 102.146C92.628 101.497 92.086 100.768 91.6475 99.976C90.5469 98.0938 89.7438 96.0533 89.2665 93.9265C89.1407 93.3744 89.0471 92.7581 89.325 92.2644C89.4566 92.0307 89.6584 91.8467 89.7959 91.6159C90.2581 90.8302 89.8134 89.8399 89.3659 89.0396C88.6844 89.1038 88.1959 88.3035 88.2573 87.6199C88.3188 86.9364 88.7283 86.3434 89.0178 85.7213C89.8661 83.8868 89.6789 81.7515 89.2694 79.774C88.8599 77.7964 88.2485 75.8306 88.2953 73.8121C88.3451 71.6768 86.8065 69.7548 85.6336 67.97C84.9784 66.9652 84.2149 66.0304 83.6445 64.9759C82.4553 62.7569 82.1804 60.1619 82.8782 57.7434C83.2878 56.5015 83.8249 55.3053 84.4811 54.1739L85.4464 52.3658C85.6261 51.9337 85.9051 51.55 86.2607 51.2455C86.6164 50.941 87.0389 50.7244 87.4939 50.6131L94.1718 47.9842C95.0257 47.6929 95.8363 47.2881 96.582 46.7807C97.3981 46.1673 98.0065 45.3202 98.7846 44.6659C98.8979 44.5469 99.034 44.4518 99.1847 44.3861C99.3353 44.3204 99.4977 44.2854 99.6621 44.2832C100.288 44.3387 100.51 45.1274 100.575 45.7437C100.721 47.1225 101.745 48.2909 102.093 49.6316C103.977 57.0365 107.963 63.8659 109.057 71.4256C110.286 68.4783 111.514 65.5251 113.088 62.7501C113.336 62.3517 113.545 61.93 113.711 61.4911C113.9 60.858 113.97 60.1955 113.919 59.5369C113.84 57.6353 113.334 55.7775 112.834 53.9402C112.184 51.4398 111.599 49.1351 110.924 46.658Z" fill="#3F3D56"/>
<path d="M123.65 69.2845C123.778 70.5288 123.904 71.7761 124.135 73.0059C124.404 74.4284 124.814 75.8189 125.22 77.2093C125.419 77.9909 125.704 78.7481 126.069 79.4672C126.201 79.676 126.306 79.9008 126.382 80.1362C126.525 80.7204 126.197 81.3046 126.057 81.8888C125.636 83.6414 126.899 85.5898 126.104 87.2051C125.864 87.6959 125.446 88.1019 125.288 88.6277C125.103 89.2323 125.288 89.8779 125.384 90.503C125.633 92.2556 125.033 94.0375 124.442 95.7229L123.436 98.568C122.518 96.8621 121.59 95.1387 120.321 93.6752C119.868 93.1495 119.373 92.6616 118.955 92.1066C118.331 91.2345 117.839 90.276 117.493 89.2615C116.6 86.8512 116.089 84.3163 115.98 81.7486C115.908 81.0186 115.992 80.2815 116.229 79.587C116.422 79.1853 116.639 78.7952 116.878 78.4186C117.662 77.0077 117.823 75.3369 117.808 73.7245C117.794 72.112 117.621 70.4938 117.808 68.8901C117.961 67.5512 118.358 66.2513 118.978 65.0548C119.345 64.2799 119.889 63.6023 120.567 63.0772C121.073 62.699 121.69 62.4987 122.322 62.5076C123.278 62.5631 123.059 63.3839 123.141 64.1755L123.65 69.2845Z" fill="#3F3D56"/>
<path d="M80.6268 65.309C80.0301 67.0616 79.4919 68.8299 79.0122 70.6136C78.5441 72.3663 78.1259 74.1286 77.7573 75.9007C77.568 76.6799 77.4621 77.477 77.4414 78.2785C77.4788 79.2117 77.6391 80.1358 77.9182 81.0272C79.8019 87.807 83.2359 94.0609 87.1028 99.941C88.2078 98.5648 89.5202 97.3685 90.9931 96.3949C91.1137 96.3236 91.2143 96.2231 91.2856 96.1027C91.3227 95.9891 91.3335 95.8686 91.3173 95.7503C91.3011 95.6319 91.2583 95.5187 91.192 95.4192C90.1244 93.2343 88.4337 91.3093 87.9014 88.9345C87.6791 87.9472 87.6703 86.919 87.4187 85.9375C87.0941 84.6668 86.3686 83.5043 86.2019 82.2015C86.0235 80.7818 86.4944 79.2337 85.8275 77.9747C87.1877 77.446 87.9745 76.0468 88.5507 74.706C89.1664 73.3344 89.6067 71.8907 89.8611 70.4092C90.2617 67.5688 89.705 64.6761 88.2787 62.1864C87.5821 60.9445 86.688 59.8238 85.6315 58.8681C85.2835 58.5555 84.4615 57.6588 83.9555 57.6675C83.2798 57.6821 83.0633 58.7746 82.8703 59.2654C82.0893 61.2692 81.3171 63.276 80.6268 65.309Z" fill="#3F3D56"/>
<path d="M92.7421 98.004C92.8299 98.0683 92.9293 98.1559 92.9059 98.2611C92.8825 98.3662 92.7977 98.3925 92.7216 98.4363C92.3262 98.7165 92.031 99.1157 91.8792 99.5755C91.3932 100.67 90.9693 101.79 90.6098 102.932C89.9552 101.952 89.1853 101.055 88.3165 100.259C87.6496 99.6456 86.9037 99.0643 86.5469 98.2348C86.5469 98.2114 88.0796 97.0809 88.22 96.9583C88.65 96.5756 89.1911 95.5153 89.6357 95.2816C90.1388 95.0187 90.6185 96.0498 91.0017 96.4646C91.5288 97.0346 92.1119 97.5503 92.7421 98.004Z" fill="#FBBEBE"/>
<path d="M116.527 34.8043C116.507 34.4216 116.457 33.9981 116.165 33.7498C115.908 33.5724 115.599 33.487 115.287 33.5073C113.582 33.4518 111.818 33.7381 110.209 33.1656C109.15 32.7887 108.247 32.0643 107.214 31.6145C106.181 31.1646 104.859 31.0449 104.026 31.8014C103.394 32.3856 103.221 33.2824 103.002 34.1091C102.519 35.9336 101.659 37.637 100.478 39.1099C99.6849 38.8645 99.1175 38.1576 98.7518 37.4157C97.5087 34.8861 98.12 31.8657 99.0034 29.1842C99.2959 28.2845 99.6206 27.3936 99.9453 26.5056L100.659 24.5426C101.596 24.4507 102.466 24.0183 103.104 23.3275L103.411 24.0723C104.205 24.0438 104.97 23.7737 105.605 23.2982C105.851 23.7598 106.483 23.8825 106.995 23.7335C107.506 23.5845 107.948 23.2982 108.457 23.1493C109.817 22.7111 111.268 23.3859 112.696 23.4618C113.3 23.4471 113.904 23.4647 114.506 23.5144C116.191 23.7861 117.381 25.3693 117.896 26.9934C118.238 28.0742 118.522 29.4032 119.59 29.7859C119.613 30.1949 118.888 30.2737 118.826 30.6622C118.819 30.7917 118.85 30.9206 118.914 31.0332L119.894 33.1334C119.426 33.2509 118.933 33.2265 118.478 33.0633C118.037 34.1003 116.571 35.5959 116.527 34.8043Z" fill="#192534"/>
<path d="M166.184 39.3757C166.681 40.9774 167.072 42.6098 167.354 44.2626C167.565 45.5011 167.688 46.8769 166.977 47.911C169.685 43.842 172.514 39.6502 176.63 37.0242C175.791 36.1168 175.154 35.0434 174.758 33.8739C174.363 32.7043 174.218 31.4648 174.333 30.2357C174.357 29.9903 170.955 31.2727 170.695 31.4187C169.501 32.0818 168.407 32.9055 167.243 33.6154C166.641 33.9805 164.131 34.8451 164.107 35.368C164.107 35.7039 165.105 36.7321 165.292 37.0856C165.659 37.8199 165.958 38.5865 166.184 39.3757Z" fill="#FBBEBE"/>
<path d="M178.77 192.842C178.102 192.372 177.318 192.091 176.502 192.029C175.686 191.967 174.869 192.127 174.137 192.492C172.812 193.175 171.92 194.469 170.715 195.345C168.644 196.847 165.909 196.967 163.484 197.779C162.841 197.995 162.156 198.316 161.884 198.947C161.793 199.212 161.756 199.493 161.777 199.773C161.798 200.053 161.875 200.325 162.004 200.574C162.409 201.476 163.12 202.208 164.011 202.639C165.099 203.159 166.351 203.183 167.556 203.197L178.027 203.32C181.245 203.358 184.483 203.396 187.68 203.796C188.426 203.89 189.233 203.992 189.891 203.627C190.962 203.042 191.085 201.564 191.003 200.346C190.787 197.26 190.097 194.226 188.955 191.349C188.83 191.031 188.663 190.669 188.309 190.61C188.058 190.599 187.811 190.678 187.613 190.832C184.658 192.585 180.917 193.575 177.776 192.173" fill="white"/>
<path d="M184.012 126.125C182.842 132.911 183.605 139.883 184.922 146.64C185.164 147.985 185.483 149.315 185.878 150.624C186.349 152.114 186.984 153.545 187.425 155.044C188.549 158.841 188.391 162.901 188.224 166.865L187.458 184.903C187.393 186.416 187.335 187.964 187.791 189.407C187.975 189.991 188.201 190.721 187.735 191.116C187.553 191.246 187.341 191.328 187.118 191.352C185.025 191.737 182.863 191.414 180.976 190.432L180.768 172.211C180.704 166.593 180.636 160.953 179.771 155.406C179.083 150.995 177.89 146.643 177.811 142.179C177.729 137.506 178.876 132.893 180.046 128.363C180.297 127.393 181.216 126.683 181.97 126.026C182.234 125.766 182.554 125.572 182.906 125.459C183.257 125.363 183.795 125.83 184.012 126.125Z" fill="#3F3D56"/>
<path opacity="0.1" d="M184.012 126.125C182.842 132.911 183.605 139.883 184.922 146.64C185.164 147.985 185.483 149.315 185.878 150.624C186.349 152.114 186.984 153.545 187.425 155.044C188.549 158.841 188.391 162.901 188.224 166.865L187.458 184.903C187.393 186.416 187.335 187.964 187.791 189.407C187.975 189.991 188.201 190.721 187.735 191.116C187.553 191.246 187.341 191.328 187.118 191.352C185.025 191.737 182.863 191.414 180.976 190.432L180.768 172.211C180.704 166.593 180.636 160.953 179.771 155.406C179.083 150.995 177.89 146.643 177.811 142.179C177.729 137.506 178.876 132.893 180.046 128.363C180.297 127.393 181.216 126.683 181.97 126.026C182.234 125.766 182.554 125.572 182.906 125.459C183.257 125.363 183.795 125.83 184.012 126.125Z" fill="black"/>
<path d="M162.048 104.918C161.615 106.697 162.534 108.54 162.432 110.369C162.373 111.476 161.937 112.58 162.139 113.667C162.341 114.753 163.119 115.571 163.534 116.567C163.837 117.399 163.997 118.276 164.008 119.161C164.128 121.346 164.032 123.543 163.95 125.719C163.812 129.37 163.71 133.042 164.192 136.661C164.613 139.797 165.466 142.859 166.728 145.76C167.111 146.55 167.427 147.369 167.673 148.211C167.835 148.995 167.942 149.79 167.995 150.589C168.273 153.187 168.971 155.724 170.063 158.099C170.809 159.726 172.11 161.02 172.523 162.746C172.915 164.4 172.652 166.143 172.935 167.817C173.143 169.059 173.649 170.233 173.93 171.46C174.295 173.046 174.287 174.69 174.471 176.309C174.998 180.982 177.124 185.656 175.855 190.19C175.6 191.101 175.205 192.027 175.384 192.956C175.471 193.411 175.694 193.861 175.594 194.314C175.512 194.7 175.214 194.998 175.062 195.363C174.769 196.046 175.079 196.858 175.6 197.387C176.155 197.88 176.801 198.261 177.501 198.509C179.657 199.429 181.889 200.364 184.229 200.343C184.513 200.358 184.797 200.306 185.057 200.191C185.478 199.972 185.686 199.496 185.864 199.058L187.063 196.096C187.21 195.737 187.356 195.316 187.154 194.983C187.013 194.8 186.843 194.642 186.651 194.516C185.683 193.701 185.902 192.179 186.159 190.955C186.817 187.811 187.181 184.614 187.248 181.403C187.376 175 186.32 168.635 185.267 162.317C184.902 160.123 184.533 157.915 183.805 155.812C183.076 153.709 182.003 151.684 182.179 149.499C182.366 147.139 181.751 144.665 182.179 142.337C182.606 140.009 183.281 137.73 183.717 135.405C184.282 132.388 184.422 129.312 184.595 126.251C184.668 125 184.761 123.709 185.346 122.599C185.689 121.951 186.186 121.396 186.569 120.768C187.558 119.135 187.716 117.111 188.66 115.451C189.108 114.666 189.725 113.973 190.053 113.132C190.283 112.469 190.403 111.772 190.41 111.07C190.502 109.307 190.404 107.539 190.117 105.797C185.138 103.267 179.616 101.988 174.029 102.07C171.891 102.105 169.73 102.321 167.723 103.06C165.81 103.77 164.067 104.766 162.048 104.918Z" fill="#3F3D56"/>
<path d="M174.041 197.463C173.181 198.532 173.24 200.06 172.69 201.318C172.023 202.846 170.537 203.825 169.127 204.716L160.352 210.266C159.872 210.558 159.357 210.917 159.182 211.46C159.099 211.807 159.114 212.17 159.226 212.509C159.435 213.242 159.826 213.911 160.361 214.454C160.897 214.997 161.561 215.397 162.291 215.617C163.068 215.802 163.865 215.883 164.663 215.859L168.609 215.912C169.811 215.959 171.015 215.912 172.21 215.772C173.304 215.614 174.369 215.302 175.457 215.103C177.437 214.744 179.473 214.776 181.456 214.428C182.671 214.19 183.87 213.881 185.048 213.502C186.481 213.073 187.941 212.626 189.17 211.776C189.508 211.57 189.782 211.275 189.962 210.923C190.17 210.441 190.056 209.889 189.939 209.378L188.055 201.111C187.949 200.423 187.698 199.765 187.318 199.18C186.9 198.625 186.148 198.257 185.496 198.494C185.226 198.616 184.972 198.769 184.738 198.95C183.773 199.583 182.536 199.689 181.395 199.49C180.658 199.358 179.684 199.157 179.09 198.669C178.639 198.298 178.505 197.723 178.122 197.302C177.853 197.027 177.529 196.81 177.172 196.668C176.814 196.525 176.43 196.46 176.046 196.475C175.661 196.49 175.283 196.586 174.938 196.756C174.593 196.926 174.287 197.167 174.041 197.463Z" fill="white"/>
<path d="M168.351 38.2364C174.188 38.2364 178.92 33.5114 178.92 27.6827C178.92 21.854 174.188 17.1289 168.351 17.1289C162.515 17.1289 157.783 21.854 157.783 27.6827C157.783 33.5114 162.515 38.2364 168.351 38.2364Z" fill="#FBBEBE"/>
<path d="M160.198 28.3022C161.211 27.7356 161.211 26.1027 162.246 25.5594C163.281 25.0161 164.457 25.9596 165.121 26.9118C166.089 28.3064 166.761 29.884 167.096 31.5475C167.189 32.0207 167.277 32.5378 167.634 32.8679C167.991 33.1979 168.459 33.2388 168.915 33.2856C170.251 33.418 171.589 33.5387 172.928 33.6478C174.42 33.7675 175.994 33.8639 177.348 33.2242C177.883 32.9856 178.342 32.6058 178.676 32.1259C178.944 31.6651 179.136 31.164 179.243 30.642C179.943 27.9868 180.647 25.2994 180.706 22.5536C180.729 21.4202 180.63 20.246 180.083 19.2528C179.764 18.6686 179.296 18.1604 179.164 17.5177C179.033 16.8751 179.457 16.0572 180.124 16.1273C179.521 16.1521 178.921 16.0381 178.369 15.7943C177.839 15.5022 177.447 14.8742 177.635 14.3016C176.149 14.4915 175.066 13.0251 173.908 12.0758C173.72 11.8893 173.466 11.7844 173.2 11.7837C172.997 11.8344 172.8 11.9099 172.615 12.0086C172.03 12.2131 171.419 11.8246 170.819 11.6552C169.211 11.2053 167.166 12.292 165.973 11.1235C166.087 11.8684 165.171 12.3679 164.416 12.3533C163.662 12.3387 162.884 12.0612 162.17 12.3124C162.273 12.5012 162.334 12.7105 162.347 12.9253C162.36 13.1401 162.325 13.3551 162.245 13.5549C162.165 13.7547 162.042 13.9345 161.884 14.0812C161.727 14.228 161.539 14.3382 161.333 14.4039L161.687 15.175C161.323 15.2478 160.986 15.421 160.714 15.6749C160.443 15.9289 160.248 16.2535 160.152 16.6122C159.763 18.1457 159.859 20.3248 159.953 21.9022C160 22.5945 160.675 28.0423 160.198 28.3022Z" fill="#192534"/>
<path d="M169.218 41.2863C163.909 47.2482 162.557 55.6404 161.425 63.5418L159.758 75.2085C159.325 78.2347 158.881 81.2609 158.503 84.2959C158.24 86.3728 157.994 88.4818 158.281 90.5557C158.506 92.1915 159.053 93.7689 159.509 95.3433C160.697 99.4729 161.288 103.751 161.264 108.047C161.618 107.007 162.844 106.586 163.92 106.353C172.952 104.396 182.375 105.401 190.79 109.218C192.267 105.085 191.989 100.563 192.402 96.1934C192.987 89.9627 195.002 83.9249 195.599 77.706C195.818 75.3896 195.844 73.0615 195.868 70.7335C195.885 69.0246 195.903 67.2983 195.546 65.6245C195.148 63.7726 194.309 62.0463 193.44 60.3666C191.038 55.6977 188.37 51.1704 185.449 46.8071C183.978 44.6105 182.445 42.4577 180.848 40.3487C180.038 39.2796 179.212 38.2222 178.37 37.1764C177.554 36.1628 177.2 35.2836 175.904 35.8911C173.456 37.0362 170.999 39.2854 169.218 41.2863Z" fill="#A350E8"/>
<path d="M172.259 90.9092C170.964 90.9559 169.667 90.9149 168.377 90.7865C167.421 90.693 166.444 90.5528 165.511 90.7865C165.105 90.8885 164.725 91.0746 164.396 91.3327C164.274 91.4411 164.187 91.5826 164.144 91.74C164.101 91.8974 164.106 92.0637 164.156 92.2187C164.207 92.3737 164.302 92.5106 164.429 92.6126C164.556 92.7146 164.71 92.7774 164.873 92.7932L165.873 92.8809C166.508 92.9364 167.169 93.0006 167.663 93.4651C167.866 93.6476 167.995 93.898 168.026 94.169C168.088 94.8497 167.497 95.2206 166.967 95.504C166.215 95.8569 165.519 96.3196 164.902 96.8769C164.419 97.3426 164.116 97.963 164.045 98.6295C164.043 98.6889 164.056 98.7479 164.084 98.8004C164.112 98.853 164.153 98.8974 164.203 98.929C164.254 98.9607 164.312 98.9786 164.371 98.9809C164.431 98.9832 164.49 98.9698 164.542 98.942C165.712 98.3578 166.476 96.6257 167.76 96.9148C166.592 97.2842 165.592 98.0526 164.934 99.0852C164.772 99.3317 164.698 99.6257 164.724 99.9195C164.751 100.213 164.875 100.49 165.079 100.704C165.282 100.918 165.552 101.057 165.844 101.099C166.136 101.141 166.434 101.083 166.689 100.934C166.88 100.823 167.063 100.701 167.239 100.569C168.109 99.8658 168.888 99.0573 169.559 98.1621C168.623 100.134 167.675 102.441 168.752 104.401C168.805 104.509 168.889 104.599 168.993 104.66C169.097 104.722 169.216 104.751 169.337 104.746C169.676 104.711 169.775 104.393 169.831 104.112C170.006 103.21 170.05 102.257 170.495 101.454C171.525 99.5905 174.063 99.4094 175.997 98.501C178.316 97.426 179.905 95.1125 180.545 92.6413C180.769 91.9206 180.809 91.1553 180.659 90.4155C180.229 88.7534 178.176 88.3708 176.857 89.174C175.239 90.1993 174.3 90.8449 172.259 90.9092Z" fill="#FBBEBE"/>
<path opacity="0.1" d="M170.206 58.2136C172.253 61.3712 175.807 63.1502 178.855 65.3672C179.599 65.8509 180.247 66.4667 180.768 67.1841C181.537 68.3701 181.645 69.8773 181.488 71.2736C181.289 73.1168 180.695 74.8899 180.107 76.6483L178.829 80.4603C178.018 82.879 177.182 85.3472 175.64 87.3803C175.245 87.8973 174.786 88.4494 174.804 89.0979C174.838 89.4725 174.967 89.8323 175.178 90.1436C175.672 90.9475 176.322 91.6441 177.09 92.1921C177.858 92.7401 178.729 93.1282 179.651 93.3334C180.202 93.4736 180.781 93.4736 181.332 93.3334C182.122 93.0997 182.716 92.4571 183.266 91.8495C185.898 88.9489 188.531 86.0074 190.432 82.6044C192.29 79.2831 193.401 75.5938 194.425 71.9396C194.847 70.5943 195.14 69.2124 195.303 67.8122C195.519 65.1832 194.829 62.5543 193.7 60.1794C192.571 57.8046 191.017 55.6547 189.417 53.5662C187.907 51.5147 186.229 49.5919 184.401 47.8176C181.218 44.8468 177.325 43.1001 173.066 44.7855C170.059 45.9773 168.933 48.4631 168.664 51.6471C168.436 53.9459 168.978 56.2553 170.206 58.2136Z" fill="black"/>
<path d="M171.271 57.4132C173.318 60.5709 176.875 62.3498 179.92 64.5669C180.661 65.0553 181.307 65.675 181.824 66.3955C182.593 67.5814 182.702 69.0858 182.544 70.4849C182.342 72.3281 181.751 74.1012 181.16 75.8597L179.882 79.6571C179.072 82.0757 178.235 84.5411 176.694 86.577C176.302 87.0941 175.842 87.6432 175.86 88.2946C175.892 88.6687 176.021 89.0281 176.234 89.3374C176.727 90.1416 177.377 90.8387 178.144 91.3872C178.912 91.9357 179.783 92.3244 180.704 92.5301C181.257 92.6703 181.836 92.6703 182.389 92.5301C183.178 92.2994 183.769 91.6538 184.322 91.0492C186.955 88.1456 189.587 85.207 191.489 81.804C193.346 78.4828 194.457 74.7935 195.481 71.1363C195.904 69.7924 196.198 68.4113 196.359 67.0118C196.575 64.3829 195.885 61.7539 194.759 59.3762C193.633 56.9984 192.076 54.8515 190.476 52.7629C188.961 50.7222 187.279 48.8101 185.448 47.0464C182.269 44.0786 178.376 42.3289 174.117 44.0173C171.107 45.2091 169.984 47.692 169.712 50.8788C169.497 53.169 170.045 55.4658 171.271 57.4132Z" fill="#A350E8"/>
<path d="M235.949 162.188C235.951 162.95 235.873 163.71 235.715 164.455C235.686 164.595 235.653 164.747 235.621 164.867C234.791 168.194 232.448 170.627 229.651 170.782C229.558 170.782 229.464 170.782 229.359 170.782C226.402 170.782 223.901 168.235 223.076 164.727C223.052 164.633 223.032 164.54 223.011 164.435C222.854 163.689 222.775 162.93 222.777 162.168C222.777 157.415 225.723 153.565 229.359 153.565C232.995 153.565 235.949 157.445 235.949 162.188Z" fill="#3F3D56"/>
<path opacity="0.1" d="M235.949 162.188C235.951 162.95 235.873 163.71 235.715 164.455C235.686 164.595 235.653 164.747 235.621 164.867C235.522 164.867 235.425 164.867 235.329 164.867C234.604 164.828 233.884 164.73 233.176 164.575C232.548 164.769 231.907 164.915 231.257 165.013C230.759 165.088 230.257 165.135 229.754 165.153H229.245C228.642 165.153 228.04 165.113 227.443 165.034C226.477 164.905 225.528 164.67 224.614 164.332C224.114 164.499 223.604 164.635 223.087 164.741C223.064 164.648 223.044 164.554 223.023 164.449C222.865 163.704 222.787 162.944 222.789 162.183C222.789 157.43 225.735 153.58 229.37 153.58C233.006 153.58 235.949 157.445 235.949 162.188Z" fill="black"/>
<path d="M249.989 146.164C249.992 144.072 249.501 142.01 248.556 140.143L240.816 142.547L247.611 138.557C246.471 136.914 244.976 135.546 243.237 134.557C241.497 133.567 239.558 132.979 237.56 132.838C237.243 132.356 236.894 131.896 236.516 131.459L225.401 134.915L234.518 129.56C232.774 128.224 230.727 127.337 228.558 126.979C226.389 126.62 224.165 126.801 222.083 127.506C220.001 128.21 218.124 129.416 216.62 131.017C215.116 132.618 214.03 134.565 213.458 136.685L222.979 147.63L212.651 140.17C210.034 142.023 208.172 144.753 207.402 147.863C206.633 150.972 207.008 154.255 208.459 157.111C209.91 159.968 212.34 162.209 215.307 163.426C218.274 164.644 221.58 164.756 224.623 163.743C227.375 164.753 230.383 164.836 233.188 163.979C235.142 164.409 237.169 164.395 239.118 163.94C241.067 163.484 242.889 162.598 244.45 161.346C246.011 160.095 247.271 158.51 248.137 156.708C249.004 154.906 249.454 152.933 249.457 150.934C249.457 150.642 249.457 150.35 249.427 150.057C249.806 148.794 249.996 147.482 249.989 146.164Z" fill="#A350E8"/>
<path opacity="0.1" d="M249.757 148.641C245.67 147.867 241.479 147.814 237.373 148.483C232.725 149.251 227.975 150.94 223.429 149.707C220.761 148.983 218.456 147.306 215.85 146.374C213.336 145.498 210.627 145.336 208.026 145.907C207.035 148.275 206.747 150.878 207.197 153.405C207.648 155.932 208.817 158.276 210.566 160.156C212.315 162.037 214.569 163.376 217.059 164.012C219.549 164.648 222.17 164.554 224.608 163.743C227.36 164.753 230.368 164.836 233.172 163.979C235.127 164.409 237.154 164.395 239.103 163.94C241.052 163.484 242.874 162.598 244.435 161.346C245.995 160.095 247.255 158.51 248.122 156.708C248.988 154.906 249.439 152.933 249.441 150.934C249.441 150.642 249.441 150.35 249.412 150.058C249.553 149.592 249.669 149.119 249.757 148.641Z" fill="black"/>
<path d="M273.717 168.994H214.497C213.906 168.994 213.321 168.877 212.776 168.651C212.23 168.425 211.735 168.094 211.317 167.677C210.899 167.259 210.568 166.763 210.342 166.218C210.116 165.672 210 165.087 210 164.497C210 163.906 210.116 163.322 210.342 162.776C210.568 162.23 210.899 161.735 211.317 161.317C211.735 160.9 212.23 160.568 212.776 160.342C213.321 160.116 213.906 160 214.497 160H273.717C274.308 160 274.893 160.116 275.438 160.342C275.984 160.568 276.479 160.9 276.897 161.317C277.315 161.735 277.646 162.23 277.872 162.776C278.098 163.322 278.214 163.906 278.214 164.497C278.214 165.087 278.098 165.672 277.872 166.218C277.646 166.763 277.315 167.259 276.897 167.677C276.479 168.094 275.984 168.425 275.438 168.651C274.893 168.877 274.308 168.994 273.717 168.994Z" fill="#A350E8"/>
</g>
<defs>
<clipPath id="clip0_1498_980">
<rect width="320" height="222" fill="white"/>
</clipPath>
</defs>
</svg>
