<svg width="319" height="309" viewBox="0 0 319 309" fill="none" xmlns="http://www.w3.org/2000/svg">
<g clip-path="url(#clip0_1498_1039)">
<path d="M46.3731 248.147L36.6751 241.416C36.2296 235.508 36.0905 229.576 36.2582 223.65L41.2889 225.05L36.3235 221.605C36.5978 214.279 37.2051 209.447 37.2051 209.447C37.2051 209.447 56.8133 223.322 69.3189 242.129L67.1864 258.035L72.272 246.911C73.5729 249.18 74.7414 251.535 75.7708 253.964C86.0743 278.485 87.0755 302.029 78.007 306.551C68.9385 311.073 53.2344 294.861 42.9309 270.34C39.7367 262.738 37.9736 253.997 37.06 245.555L46.3731 248.147Z" fill="#F0F0F0"/>
<path d="M26.451 271.816L14.9555 271.515C11.7705 266.708 8.83698 261.709 6.16883 256.541L11.1397 254.907L5.25404 254.753C2.01304 248.328 0.240234 243.85 0.240234 243.85C0.240234 243.85 23.6092 244.686 43.2382 253.743L48.9598 268.56L48.0355 256.174C50.2254 257.384 52.3434 258.742 54.3768 260.241C74.8322 275.431 86.8607 295.022 81.2434 303.999C75.626 312.977 54.49 307.941 34.0346 292.752C27.6933 288.043 22.0367 281.554 17.2486 274.841L26.451 271.816Z" fill="#F0F0F0"/>
<path d="M190.288 86.7366L181.28 85.582L178.101 115.6L169.983 157.052C168.855 157.651 167.934 158.63 167.357 159.845C166.781 161.06 166.58 162.446 166.785 163.795C166.99 165.144 167.589 166.385 168.494 167.334C169.398 168.282 170.56 168.887 171.805 169.058C173.051 169.229 174.314 168.957 175.406 168.283C176.499 167.609 177.362 166.569 177.868 165.317C178.374 164.066 178.495 162.67 178.214 161.337C177.932 160.004 177.263 158.806 176.306 157.921L184.46 133.495L190.288 86.7366Z" fill="#FFB6B6"/>
<path d="M203.375 300.736H195.953L192.422 269.549L203.376 269.549L203.375 300.736Z" fill="#FFB6B6"/>
<path d="M205.267 308.574L181.336 308.573V308.243C181.336 305.552 182.318 302.971 184.064 301.068C185.811 299.165 188.18 298.096 190.651 298.096H190.651L205.268 298.096L205.267 308.574Z" fill="#2F2E41"/>
<path d="M260.334 296.326L253.046 297.859L244.15 267.968L254.906 265.706L260.334 296.326Z" fill="#FFB6B6"/>
<path d="M263.556 303.63L240.058 308.573L240.001 308.249C239.533 305.607 240.047 302.87 241.431 300.641C242.815 298.412 244.955 296.873 247.38 296.362L247.381 296.362L261.732 293.343L263.556 303.63Z" fill="#2F2E41"/>
<path d="M191.736 37.5444L196.049 46.5576L228.347 38.7972L224.809 21.322C222.008 7.48983 210.781 -2.49978 198.084 0.551016C185.387 3.60181 179.462 17.1215 182.263 30.9537L187.467 48.6196L192.733 47.3543L191.736 37.5444Z" fill="#2F2E41"/>
<path d="M180.221 136.958C180.221 136.958 177.041 154.276 181.281 179.676C185.52 205.075 186.58 216.043 186.58 216.043C186.58 216.043 183.4 220.084 185.52 222.393C187.639 224.702 185.52 229.321 185.52 229.321L190.289 285.315L206.716 282.429L204.596 229.898C204.596 229.898 206.716 225.28 205.656 224.125C204.596 222.971 206.716 216.043 206.716 216.043L209.365 161.203L225.792 221.239C225.792 221.239 224.202 223.548 225.792 225.28C227.382 227.011 230.561 235.67 230.561 235.67L241.159 276.079L258.116 272.615L248.578 226.434C248.578 226.434 249.638 223.548 248.048 221.816C247.584 221.286 247.246 220.642 247.061 219.938C246.876 219.234 246.851 218.492 246.988 217.775C246.988 217.775 248.578 216.043 246.458 213.734C244.339 211.425 243.279 202.189 243.279 202.189C243.279 202.189 241.689 140.422 236.39 136.958C231.091 133.495 180.221 136.958 180.221 136.958Z" fill="#2F2E41"/>
<path d="M204.181 41.444C212.375 41.444 219.018 34.2074 219.018 25.2806C219.018 16.3538 212.375 9.11719 204.181 9.11719C195.987 9.11719 189.344 16.3538 189.344 25.2806C189.344 34.2074 195.987 41.444 204.181 41.444Z" fill="#FFB6B6"/>
<path d="M225.09 45.9712C225.09 45.9712 235.86 44.5969 239.039 48.0605L235.86 117.909C235.86 117.909 237.979 119.641 236.919 123.682C236.304 126.334 236.304 129.112 236.919 131.764C236.919 131.764 240.099 135.805 238.509 137.536C236.919 139.268 179.69 138.114 179.69 138.114C179.69 138.114 177.571 134.073 180.75 131.764C183.929 129.455 182.34 123.105 182.34 123.105C182.34 123.105 181.28 121.373 183.929 118.487C186.579 115.6 188.698 91.9325 188.698 91.9325L181.81 63.0694C181.81 63.0694 188.744 54.5428 196.67 53.8994L225.09 45.9712Z" fill="#E6E6E6"/>
<path d="M190.019 63.4666L181.809 63.0693C181.809 63.0693 177.04 73.4601 176.51 82.6963L173.592 117.152L192.407 120.218L190.019 63.4666Z" fill="#E6E6E6"/>
<path d="M191.468 26.0822L185.957 18.3573C185.632 16.7309 185.911 15.0305 186.733 13.6276C187.555 12.2247 188.854 11.2336 190.345 10.8707L211.166 5.86779C212.659 5.51374 214.22 5.81787 215.508 6.71373C216.796 7.60959 217.706 9.02434 218.039 10.6488L218.05 10.7046L216.56 20.0327L216.298 19.9817C203.376 17.472 199.695 18.3548 191.679 25.8846L191.468 26.0822Z" fill="#2F2E41"/>
<path d="M246.921 149.508L245.928 104.054L244.868 71.7275L232.15 73.4593L238.98 150.724C238.254 151.717 237.817 152.926 237.728 154.192C237.638 155.459 237.899 156.726 238.478 157.829C239.056 158.932 239.925 159.821 240.972 160.381C242.019 160.94 243.196 161.145 244.35 160.968C245.505 160.791 246.585 160.241 247.45 159.389C248.315 158.537 248.925 157.422 249.202 156.188C249.479 154.953 249.409 153.657 249.003 152.467C248.596 151.276 247.871 150.245 246.921 149.508Z" fill="#FFB6B6"/>
<path d="M229.762 49.035L239.039 48.0605C239.039 48.0605 240.629 48.0605 242.218 53.8332C243.808 59.6058 252.547 120.616 252.547 120.616L233.21 122.528L229.762 49.035Z" fill="#E6E6E6"/>
<path d="M172.124 121.159H170.884V84.1556C170.884 81.3432 170.375 78.5583 169.387 75.96C168.399 73.3616 166.951 71.0007 165.126 69.012C163.3 67.0233 161.133 65.4458 158.748 64.3695C156.363 63.2932 153.806 62.7393 151.225 62.7393H79.2608C76.6791 62.7393 74.1227 63.2932 71.7375 64.3695C69.3524 65.4457 67.1852 67.0232 65.3596 69.0119C63.5341 71.0006 62.086 73.3615 61.0981 75.9599C60.1101 78.5582 59.6016 81.3431 59.6016 84.1556V287.157C59.6016 292.837 61.6728 298.285 65.3596 302.301C69.0464 306.317 74.0468 308.574 79.2607 308.574H151.224C156.438 308.574 161.439 306.317 165.126 302.301C168.812 298.285 170.884 292.837 170.884 287.157V147.498H172.124V121.159Z" fill="#3F3D56"/>
<path d="M152.017 68.3106H142.623C143.055 69.4643 143.22 70.7161 143.104 71.9557C142.987 73.1952 142.592 74.3845 141.954 75.4187C141.316 76.4529 140.454 77.3003 139.445 77.8862C138.435 78.4722 137.309 78.7787 136.165 78.7788H94.9383C93.7945 78.7787 92.6682 78.4722 91.6588 77.8862C90.6493 77.3003 89.7877 76.4529 89.1497 75.4187C88.5116 74.3845 88.1169 73.1952 88.0002 71.9557C87.8835 70.7161 88.0484 69.4643 88.4804 68.3105H79.7067C75.813 68.3105 72.0787 69.9956 69.3254 72.9949C66.5722 75.9943 65.0254 80.0623 65.0254 84.304V287.008C65.0254 289.108 65.4051 291.188 66.1429 293.128C66.8807 295.069 67.9621 296.832 69.3254 298.317C70.6887 299.802 72.3072 300.98 74.0884 301.784C75.8696 302.588 77.7787 303.001 79.7067 303.001H152.017C153.945 303.001 155.854 302.588 157.635 301.784C159.416 300.98 161.035 299.802 162.398 298.317C163.761 296.832 164.843 295.069 165.581 293.128C166.319 291.188 166.698 289.108 166.698 287.008V84.3041C166.698 82.2038 166.319 80.124 165.581 78.1836C164.843 76.2432 163.761 74.4801 162.398 72.9949C161.035 71.5098 159.416 70.3317 157.635 69.528C155.854 68.7243 153.945 68.3106 152.017 68.3106Z" fill="white"/>
<path d="M104.255 141.978L106.254 149.523L131.805 149.032L131.582 135.207C131.404 124.265 124.305 114.826 114.26 115.02C104.215 115.213 97.8283 124.464 98.0055 135.407L99.4648 149.654L103.631 149.574L104.255 141.978Z" fill="#2F2E41"/>
<path d="M115.402 147.254C121.733 147.254 126.866 141.663 126.866 134.765C126.866 127.868 121.733 122.276 115.402 122.276C109.07 122.276 103.938 127.868 103.938 134.765C103.938 141.663 109.07 147.254 115.402 147.254Z" fill="#FFB6B6"/>
<path d="M138.221 154.242L137.961 159.495C132.459 165.729 124.954 169.399 117.021 169.734C109.088 170.069 101.344 167.042 95.4158 161.29C95.1508 161.036 94.8911 160.771 94.6367 160.499C96.2264 158.779 100.614 154.53 105.484 154.138L127.443 152.631C127.443 152.631 135.762 151.569 138.221 154.242Z" fill="#E4E4E4"/>
<path d="M127.952 125.996C127.937 125.04 127.662 124.11 127.162 123.324C127.109 123.243 127.056 123.168 127.003 123.093C126.578 122.502 126.034 122.026 125.413 121.703C124.791 121.38 124.11 121.217 123.421 121.228L115.181 121.39L106.946 121.546C105.767 121.571 104.644 122.105 103.825 123.03C103.006 123.955 102.556 125.196 102.575 126.481L104.535 130.782L105.664 133.252L105.85 133.137C112.977 128.773 115.891 128.715 125.323 132.773L125.514 132.854L126.261 130.77L127.957 126.042L127.952 125.996Z" fill="#2F2E41"/>
<path d="M140.077 156.845C137.726 160.12 134.841 162.894 131.567 165.03L131.053 154.997L138.222 154.241C138.222 154.241 139.081 154.241 140.077 156.845Z" fill="#E4E4E4"/>
<path d="M115.833 170.324C108.175 170.334 100.782 167.271 95.0639 161.722C94.7938 161.463 94.527 161.19 94.2659 160.911C91.1879 157.745 88.7391 153.923 87.0711 149.684C85.4031 145.445 84.5514 140.878 84.5686 136.266C84.5686 127.233 87.8625 118.57 93.7257 112.183C99.5888 105.795 107.541 102.207 115.833 102.207C124.125 102.207 132.077 105.795 137.94 112.183C143.803 118.57 147.097 127.233 147.097 136.266C147.123 143.855 144.796 151.232 140.493 157.2C137.571 161.289 133.83 164.596 129.557 166.87C125.283 169.145 120.589 170.326 115.833 170.324ZM115.833 103.362C107.825 103.371 100.148 106.841 94.4851 113.01C88.8226 119.178 85.6375 127.542 85.6284 136.266C85.612 140.723 86.4354 145.136 88.0478 149.232C89.6601 153.329 92.027 157.021 95.0019 160.081C95.2551 160.351 95.5079 160.609 95.7659 160.857C98.8557 163.841 102.474 166.105 106.397 167.508C110.321 168.911 114.467 169.423 118.579 169.014C122.691 168.605 126.683 167.283 130.308 165.129C133.934 162.975 137.116 160.034 139.658 156.49C143.815 150.723 146.062 143.597 146.037 136.266C146.028 127.542 142.843 119.178 137.18 113.01C131.518 106.841 123.841 103.371 115.833 103.362Z" fill="#3F3D56"/>
<path d="M143.939 231.974H88.8617C87.7526 231.974 86.6888 231.494 85.9046 230.64C85.1203 229.785 84.6797 228.626 84.6797 227.418C84.6797 226.21 85.1203 225.051 85.9046 224.197C86.6888 223.342 87.7526 222.862 88.8617 222.862H143.939C145.048 222.862 146.112 223.342 146.896 224.197C147.68 225.051 148.121 226.21 148.121 227.418C148.121 228.626 147.68 229.785 146.896 230.64C146.112 231.494 145.048 231.974 143.939 231.974Z" fill="#A350E8"/>
<path d="M130.531 202.936H102.27C101.161 202.936 100.097 202.456 99.3128 201.601C98.5285 200.747 98.0879 199.588 98.0879 198.38C98.0879 197.172 98.5285 196.013 99.3128 195.159C100.097 194.304 101.161 193.824 102.27 193.824H130.531C131.64 193.824 132.703 194.304 133.488 195.159C134.272 196.013 134.713 197.172 134.713 198.38C134.713 199.588 134.272 200.747 133.488 201.601C132.703 202.456 131.64 202.936 130.531 202.936Z" fill="#A350E8"/>
<path d="M318.47 309H0.5299C0.389362 309 0.254587 308.939 0.155212 308.831C0.0558363 308.723 0 308.576 0 308.423C0 308.27 0.0558363 308.123 0.155212 308.015C0.254587 307.907 0.389362 307.846 0.5299 307.846H318.47C318.611 307.846 318.745 307.907 318.845 308.015C318.944 308.123 319 308.27 319 308.423C319 308.576 318.944 308.723 318.845 308.831C318.745 308.939 318.611 309 318.47 309Z" fill="#CACACA"/>
</g>
<defs>
<clipPath id="clip0_1498_1039">
<rect width="319" height="309" fill="white"/>
</clipPath>
</defs>
</svg>
