<svg width="287" height="330" viewBox="0 0 287 330" fill="none" xmlns="http://www.w3.org/2000/svg">
<g clip-path="url(#clip0_1504_1135)">
<path d="M270.225 268.895C269.66 267.942 267.216 268.963 266.766 268.098C266.319 267.236 268.59 265.922 269.887 262.922C270.121 262.381 271.596 258.972 270.504 257.92C268.435 255.926 258.967 264.155 255.653 261.462C254.926 260.871 254.418 259.691 252.217 257.776C251.342 257.014 250.812 256.67 250.3 256.798C249.573 256.979 249.515 257.953 248.736 259.867C247.567 262.737 246.875 262.564 246.194 264.854C245.688 266.554 245.804 267.542 245.209 267.735C244.367 268.008 243.592 266.204 242.524 266.366C241.435 266.531 240.777 268.63 240.569 270.202C240.179 273.152 241.262 275.099 241.862 277.146C242.514 279.37 242.901 282.753 241.395 287.542L226.486 329.565C229.778 320.942 239.308 297.304 243.312 288.52C244.468 285.984 245.745 283.412 248.366 282.397C250.889 281.419 254.354 282.003 258.772 280.938C259.288 280.814 260.72 280.449 260.901 279.607C261.05 278.91 260.207 278.521 260.337 277.869C260.51 276.994 262.167 276.983 264.202 275.974C265.637 275.262 266.531 274.415 267.3 273.687C267.532 273.467 270.977 270.164 270.225 268.895Z" fill="#F2F2F2"/>
<path d="M211.57 291.018C210.94 291.02 210.735 292.515 210.181 292.486C209.629 292.457 209.64 290.963 208.543 289.46C208.345 289.189 207.098 287.482 206.266 287.714C204.691 288.155 205.996 295.178 203.719 296.028C203.22 296.215 202.494 296.124 200.919 296.652C200.293 296.862 199.971 297.022 199.886 297.311C199.766 297.72 200.227 298.029 200.941 298.964C202.012 300.367 201.727 300.656 202.654 301.652C203.342 302.39 203.86 302.619 203.783 302.967C203.674 303.459 202.566 303.319 202.337 303.89C202.104 304.472 202.944 305.401 203.655 305.957C204.989 306.999 206.257 307.029 207.434 307.325C208.714 307.647 210.485 308.433 212.4 310.554L228.715 330C225.434 325.895 216.587 314.396 213.433 309.895C212.522 308.595 211.629 307.227 211.887 305.647C212.136 304.126 213.422 302.593 214.174 300.116C214.262 299.827 214.496 299.019 214.135 298.687C213.836 298.413 213.402 298.714 213.12 298.462C212.741 298.125 213.213 297.308 213.305 296.018C213.37 295.108 213.212 294.424 213.077 293.837C213.036 293.66 212.41 291.015 211.57 291.018Z" fill="#F2F2F2"/>
<path d="M224.151 293.843L223.771 290.45L223.945 290.193C224.748 289.003 225.158 287.842 225.163 286.739C225.164 286.564 225.155 286.388 225.147 286.21C225.114 285.502 225.073 284.622 225.532 283.596C225.789 283.025 226.511 281.701 227.597 281.865C227.89 281.906 228.111 282.04 228.279 282.197C228.303 282.158 228.329 282.119 228.356 282.076C228.694 281.56 228.962 281.339 229.219 281.126C229.418 280.962 229.622 280.793 229.943 280.393C230.084 280.218 230.194 280.064 230.286 279.934C230.567 279.543 230.934 279.076 231.581 279.084C232.272 279.117 232.634 279.689 232.874 280.067C233.302 280.742 233.496 281.229 233.625 281.552C233.672 281.67 233.725 281.802 233.752 281.843C233.975 282.171 235.785 281.865 236.467 281.753C237.999 281.498 239.325 281.276 239.871 282.243C240.263 282.934 239.972 283.849 238.981 285.033C238.673 285.402 238.344 285.682 238.053 285.902C238.294 286.046 238.51 286.267 238.598 286.614C238.804 287.437 238.098 288.261 236.498 289.067C236.101 289.269 235.567 289.537 234.817 289.667C234.464 289.728 234.147 289.742 233.875 289.75C233.869 289.908 233.832 290.078 233.736 290.253C233.456 290.77 232.871 291.015 231.99 290.956C231.02 290.906 230.222 290.72 229.518 290.558C228.903 290.417 228.373 290.298 227.957 290.326C227.185 290.388 226.591 291.006 225.893 291.807L224.151 293.843Z" fill="#F2F2F2"/>
<path d="M225.914 273.64L222.73 274.869L222.437 274.766C221.083 274.29 219.856 274.189 218.789 274.464C218.619 274.507 218.452 274.56 218.281 274.613C217.605 274.824 216.765 275.087 215.657 274.903C215.039 274.8 213.575 274.437 213.458 273.344C213.424 273.051 213.498 272.803 213.607 272.601C213.563 272.587 213.518 272.572 213.47 272.557C212.886 272.36 212.604 272.157 212.332 271.962C212.124 271.812 211.909 271.656 211.441 271.447C211.235 271.355 211.059 271.288 210.91 271.231C210.46 271.059 209.916 270.822 209.759 270.194C209.616 269.517 210.077 269.022 210.382 268.694C210.926 268.108 211.347 267.797 211.627 267.59C211.729 267.515 211.844 267.43 211.877 267.394C212.137 267.095 211.381 265.421 211.101 264.789C210.465 263.371 209.915 262.144 210.711 261.37C211.28 260.816 212.238 260.866 213.635 261.524C214.069 261.729 214.424 261.976 214.71 262.202C214.788 261.932 214.947 261.667 215.261 261.494C216.004 261.085 216.98 261.56 218.165 262.903C218.46 263.237 218.856 263.686 219.171 264.378C219.319 264.704 219.414 265.008 219.491 265.269C219.644 265.235 219.818 265.227 220.012 265.275C220.583 265.416 220.968 265.92 221.135 266.787C221.332 267.739 221.355 268.558 221.377 269.281C221.397 269.912 221.416 270.455 221.548 270.85C221.804 271.581 222.552 272 223.504 272.471L225.914 273.64Z" fill="#F2F2F2"/>
<path d="M224.151 263.643L223.771 260.25L223.945 259.993C224.748 258.803 225.158 257.641 225.163 256.539C225.164 256.363 225.155 256.188 225.147 256.01C225.114 255.302 225.073 254.422 225.532 253.396C225.789 252.824 226.511 251.501 227.597 251.664C227.89 251.705 228.111 251.84 228.279 251.997C228.303 251.958 228.329 251.918 228.356 251.876C228.694 251.36 228.962 251.138 229.219 250.925C229.418 250.762 229.622 250.593 229.943 250.193C230.084 250.018 230.194 249.864 230.286 249.734C230.567 249.343 230.934 248.876 231.581 248.884C232.272 248.917 232.634 249.488 232.874 249.867C233.302 250.542 233.496 251.029 233.625 251.351C233.672 251.469 233.725 251.602 233.752 251.643C233.975 251.971 235.785 251.664 236.467 251.553C237.999 251.297 239.325 251.076 239.871 252.043C240.263 252.734 239.972 253.649 238.981 254.833C238.673 255.202 238.344 255.482 238.053 255.702C238.294 255.846 238.51 256.067 238.598 256.414C238.804 257.237 238.098 258.061 236.498 258.867C236.101 259.069 235.567 259.337 234.817 259.467C234.464 259.527 234.147 259.542 233.875 259.55C233.869 259.708 233.832 259.878 233.736 260.053C233.456 260.569 232.871 260.815 231.99 260.756C231.02 260.705 230.222 260.52 229.518 260.358C228.903 260.217 228.373 260.098 227.957 260.125C227.185 260.188 226.591 260.805 225.893 261.607L224.151 263.643Z" fill="#F2F2F2"/>
<path d="M227.622 329.509L226.911 329.063L226.082 329.159C226.069 329.081 226.024 328.905 225.956 328.628C225.585 327.11 224.454 322.493 223.511 315.222C222.853 310.146 222.48 304.927 222.403 299.709C222.326 294.482 222.573 290.525 222.772 287.345C222.921 284.946 223.103 282.662 223.282 280.437C223.757 274.493 224.205 268.878 223.871 262.661C223.798 261.274 223.643 258.385 221.956 255.311C220.977 253.529 219.63 251.946 217.949 250.609L218.994 249.295C220.849 250.773 222.34 252.526 223.427 254.505C225.297 257.913 225.466 261.061 225.547 262.573C225.886 268.899 225.433 274.568 224.953 280.57C224.776 282.787 224.594 285.061 224.445 287.45C224.249 290.601 224.004 294.523 224.08 299.683C224.156 304.839 224.524 309.993 225.173 315.005C226.105 322.185 227.22 326.734 227.586 328.228C227.781 329.026 227.822 329.193 227.622 329.509Z" fill="#F2F2F2"/>
<path d="M214.874 253.275C214.805 253.275 214.736 253.273 214.665 253.268C213.237 253.191 211.915 252.336 210.734 250.727C210.18 249.97 209.897 249.107 209.332 247.385C209.244 247.119 208.819 245.773 208.56 243.919C208.39 242.709 208.412 242.202 208.652 241.755C208.918 241.257 209.348 240.91 209.833 240.675C209.812 240.515 209.829 240.349 209.899 240.18C210.184 239.481 210.944 239.573 211.355 239.617C211.563 239.643 211.823 239.677 212.103 239.663C212.544 239.641 212.78 239.51 213.139 239.314C213.482 239.125 213.909 238.891 214.542 238.762C215.79 238.501 216.835 238.855 217.18 238.971C218.994 239.576 219.888 240.987 220.923 242.62C221.13 242.948 221.838 244.141 222.306 245.776C222.643 246.955 222.595 247.48 222.494 247.87C222.287 248.671 221.8 249.13 220.563 250.142C219.271 251.202 218.622 251.733 218.065 252.056C216.769 252.805 215.955 253.275 214.874 253.275Z" fill="#F2F2F2"/>
<path d="M160.961 94.0118C165.498 91.7427 168.005 87.5613 166.562 84.6728C165.118 81.7843 160.27 81.2828 155.731 83.5533C153.906 84.4354 152.318 85.742 151.101 87.3638L131.998 97.221L136.813 106.091L155.134 95.4316C157.162 95.4307 159.16 94.9438 160.961 94.0118Z" fill="#FFB6B6"/>
<path d="M52.7284 323.311L61.8215 323.31L66.1472 288.221L52.7266 288.222L52.7284 323.311Z" fill="#FFB6B6"/>
<path d="M83.8829 323.105C84.166 323.582 84.3154 325.121 84.3154 325.676C84.3154 327.381 82.9337 328.764 81.2291 328.764H53.0687C51.9059 328.764 50.9632 327.821 50.9632 326.657V325.484C50.9632 325.484 49.5702 321.959 52.4383 317.614C52.4383 317.614 56.0029 321.016 61.3294 315.688L62.9001 312.841L74.2701 321.16L80.5723 321.936C81.9511 322.106 83.1736 321.91 83.8829 323.105Z" fill="#2F2E41"/>
<path d="M67.0078 284.728L75.0833 288.91L95.0504 259.739L83.1319 253.566L67.0078 284.728Z" fill="#FFB6B6"/>
<path d="M94.7689 298.874C94.8011 299.428 94.2261 300.864 93.9712 301.357C93.1875 302.871 91.3252 303.463 89.8115 302.679L64.8039 289.726C63.7713 289.192 63.3675 287.92 63.9022 286.887L64.4412 285.846C64.4412 285.846 64.8242 282.075 69.368 279.535C69.368 279.535 70.97 284.196 78.1491 281.914L80.8522 280.108L87.1261 292.726L92.366 296.314C93.5124 297.099 94.6882 297.487 94.7689 298.874Z" fill="#2F2E41"/>
<path d="M43.4934 44.7969H67.3402L66.8198 52.5757L82.3708 102.166L85.2866 135.226L56.1286 140.088L42.5215 78.8293L45.4373 50.631L43.4934 44.7969Z" fill="#A350E8"/>
<path d="M44.9519 51.1172L19.6816 63.7578L35.2326 116.265L32.3168 169.744C32.3168 169.744 72.1661 182.385 70.2222 146.408C68.2783 110.431 68.2783 104.597 68.2783 104.597L44.9519 51.1172Z" fill="#2F2E41"/>
<path d="M85.2871 57.6664C85.2871 57.6664 91.6047 53.0611 94.5205 59.8676C97.4363 66.6741 116.389 101.193 116.389 101.193L146.033 88.0659L150.893 98.7618C150.893 98.7618 126.594 122.098 112.015 119.181C97.4363 116.264 85.7731 90.9829 85.7731 90.9829L85.2871 57.6664Z" fill="#2F2E41"/>
<path d="M35.2313 160.021C35.2313 160.021 34.2593 175.578 36.2032 188.219C38.1471 200.86 51.2682 308.305 51.2682 308.305L67.7911 307.332L69.249 181.413L92.5754 218.362L72.1648 273.786L86.2578 280.107L115.902 219.334L95.4912 150.297L89.6596 132.795L45.9225 137.657L35.2313 160.021Z" fill="#2F2E41"/>
<path d="M100.352 163.91C100.352 163.91 74.1096 171.689 68.278 104.597L66.959 50.5L91.6044 56.9514L88.6886 105.569L100.352 163.91Z" fill="#2F2E41"/>
<path d="M55.6432 38.4764C65.3054 38.4764 73.1381 30.6403 73.1381 20.974C73.1381 11.3078 65.3054 3.47168 55.6432 3.47168C45.9811 3.47168 38.1484 11.3078 38.1484 20.974C38.1484 30.6403 45.9811 38.4764 55.6432 38.4764Z" fill="#FFB6B6"/>
<path d="M44.4646 37.99C44.4646 37.99 36.6892 29.2389 35.7172 25.3494C34.7453 21.46 34.7453 10.7641 35.7172 9.79178C36.6892 8.81943 47.3804 -0.904103 51.2682 0.0682462C55.1559 1.0406 62.8623 5.90237 69.7349 5.90237C71.6788 5.90237 72.6507 15.6259 72.6507 15.6259L64.8752 16.5983C64.8752 16.5983 55.1559 11.7365 56.1278 16.5983C57.0998 21.46 49.3243 21.46 49.3243 21.46L50.2962 25.3494L47.3804 26.3218L45.4366 22.4324C45.4366 22.4324 46.4085 31.1836 49.3243 35.073C52.2401 38.9624 44.4646 37.99 44.4646 37.99Z" fill="#2F2E41"/>
<path d="M36.7179 177.992C39.3853 182.308 43.7736 184.43 46.5192 182.731C49.2647 181.033 49.3276 176.157 46.6587 171.84C45.6162 170.1 44.1726 168.636 42.4485 167.569L30.916 149.423L22.5195 155.019L34.7799 172.314C34.9634 174.334 35.6279 176.281 36.7179 177.992Z" fill="#FFB6B6"/>
<path d="M23.5687 63.7578H18.709C18.709 63.7578 -0.729629 107.514 0.2423 116.265C0.2423 116.265 0.242301 124.044 5.10197 129.878C9.96164 135.712 30.3723 168.772 30.3723 168.772L39.1197 161.966L21.6248 121.127L32.3161 78.3431L23.5687 63.7578Z" fill="#2F2E41"/>
<path d="M286.459 328.747C286.459 329.058 286.207 329.309 285.897 329.309H0.562177C0.251699 329.309 0 329.058 0 328.747C0 328.436 0.251692 328.185 0.562177 328.185H285.897C286.207 328.185 286.459 328.436 286.459 328.747Z" fill="#E6E6E6"/>
<path d="M181.282 124.618C178.987 124.618 176.799 123.68 175.225 122.006C165.091 111.229 159.51 97.1453 159.51 82.3511C159.51 70.0227 163.333 58.2525 170.566 48.3123C171.995 46.3485 174.213 45.116 176.651 44.9313C179.127 44.7404 181.549 45.6479 183.295 47.4126L212.683 77.1096C215.624 80.0816 215.924 84.8265 213.382 88.1463L187.986 121.309C186.477 123.28 184.189 124.482 181.709 124.608C181.566 124.615 181.424 124.618 181.282 124.618Z" fill="#A350E8"/>
<path d="M228.106 141.939C219.045 141.939 210.351 139.93 202.264 135.968C199.327 134.529 197.213 131.876 196.464 128.689C195.716 125.502 196.428 122.186 198.418 119.589L219.581 91.9524C223.431 86.9251 222.975 79.7395 218.522 75.2382L196.857 53.3459C193.726 50.1814 192.306 45.8413 192.962 41.4384C193.621 37.0126 196.262 33.2534 200.208 31.1251C209.104 26.3263 219.185 23.8977 229.362 24.1161C260.032 24.7562 285.313 49.2389 286.916 79.8529C287.772 96.2085 282.06 111.735 270.831 123.571C259.596 135.416 244.422 141.939 228.106 141.939ZM228.128 26.1116C218.703 26.1116 220.958 35.0553 212.714 39.502C209.33 41.3269 195.512 37.9407 194.947 41.7345C194.385 45.5052 195.602 49.2225 198.284 51.933L219.948 73.8252C225.104 79.0359 225.631 87.354 221.175 93.1738L200.011 120.81C198.389 122.928 197.809 125.632 198.419 128.23C199.029 130.828 200.753 132.991 203.147 134.164C210.956 137.991 219.354 124.532 228.106 124.532C243.866 124.532 258.522 133.63 269.375 122.189C280.221 110.756 285.738 95.7577 284.911 79.9582C283.363 50.3893 258.945 26.7425 229.321 26.124C228.923 26.1158 228.525 26.1116 228.128 26.1116Z" fill="#E6E6E6"/>
<path d="M231.967 83.2643C230.822 81.9265 230.25 79.9686 230.25 77.3893C230.25 74.8347 230.822 72.888 231.967 71.5502C233.111 70.2128 234.695 69.5439 236.719 69.5439C238.766 69.5439 240.369 70.2128 241.525 71.5502C242.682 72.888 243.26 74.8347 243.26 77.3893C243.26 79.9686 242.682 81.9265 241.525 83.2643C240.369 84.602 238.766 85.2709 236.719 85.2709C234.695 85.2709 233.111 84.602 231.967 83.2643ZM238.779 81.1854C239.212 80.4142 239.429 79.1491 239.429 77.3893C239.429 75.6782 239.206 74.431 238.761 73.6474C238.314 72.8644 237.634 72.4725 236.719 72.4725C235.827 72.4725 235.165 72.8644 234.731 73.6474C234.297 74.431 234.081 75.6782 234.081 77.3893C234.081 79.1245 234.297 80.3845 234.731 81.1674C235.165 81.9511 235.827 82.3424 236.719 82.3424C237.658 82.3424 238.345 81.9573 238.779 81.1854ZM238.457 92.205L251.355 69.9052C253.136 69.9052 254.247 71.8354 253.354 73.3764L240.441 95.6472C238.675 95.6472 237.572 93.734 238.457 92.205ZM250.289 93.8936C249.144 92.5559 248.572 90.5855 248.572 87.9823C248.572 85.4278 249.144 83.4876 250.289 82.1616C251.433 80.8363 253.029 80.1733 255.077 80.1733C257.125 80.1733 258.721 80.8363 259.866 82.1616C261.01 83.4876 261.582 85.4399 261.582 88.0186C261.582 90.598 261.01 92.5559 259.866 93.8936C258.721 95.2313 257.125 95.9002 255.077 95.9002C253.029 95.9002 251.433 95.2313 250.289 93.8936ZM257.101 91.7968C257.535 91.0138 257.752 89.7542 257.752 88.0186C257.752 86.3075 257.528 85.0603 257.083 84.2767C256.637 83.4938 255.968 83.1018 255.077 83.1018C254.161 83.1018 253.487 83.4938 253.054 84.2767C252.62 85.0603 252.403 86.3075 252.403 88.0186C252.403 89.7542 252.62 91.0138 253.054 91.7968C253.487 92.5804 254.161 92.9717 255.077 92.9717C255.993 92.9717 256.667 92.5804 257.101 91.7968Z" fill="black"/>
</g>
<defs>
<clipPath id="clip0_1504_1135">
<rect width="287" height="330" fill="white"/>
</clipPath>
</defs>
</svg>
